<svg id="Capa_1" enable-background="new 0 0 512 512" height="512" viewBox="0 0 512 512" width="512" xmlns="http://www.w3.org/2000/svg"><path d="m319.05 165.063c-17.023-9.825-34.7-18.834-52.5-26.984-94.131-43.104-192.162-59.237-220.84-9.579-40.827 70.756 97.042 177.277 168.34 218.438 17.408 10.047 35.015 19.045 52.5 27.083 45.681 20.999 90.427 34.799 127.822 38.835l3.223-29.824c-37.7-4.074-83.981-19.378-131.045-42.407-12.495-6.114-25.038-12.479-37.5-19.673-54.599-31.521-184.847-129.876-157.354-177.452 15.648-27.206 98.546-19.349 194.854 27.651 12.327 6.017 24.846 12.589 37.5 19.898 54.82 31.648 184.828 129.875 157.354 177.466-2.432 4.204-6.621 7.646-12.451 10.195l12.012 27.48c11.836-5.171 20.728-12.817 26.426-22.69 40.826-70.756-97.044-177.277-168.341-218.437z" fill="#ff637b"/><path d="m304.05 191.049c54.82 31.648 184.828 129.875 157.354 177.466-2.432 4.204-6.621 7.646-12.451 10.195l12.012 27.48c11.836-5.171 20.728-12.817 26.426-22.69 40.827-70.756-97.042-177.277-168.34-218.438-17.023-9.825-34.7-18.834-52.5-26.984v33.073c12.325 6.017 24.844 12.588 37.499 19.898z" fill="#e63950"/><path d="m397.595 383.031c-37.7-4.074-83.981-19.378-131.045-42.407v33.397c45.681 20.999 90.427 34.799 127.822 38.835z" fill="#e63950"/><path d="m403.41 438.944c-21.539-12.421-28.893-39.927-16.465-61.479 12.425-21.517 39.899-28.892 61.479-16.465 21.514 12.441 28.894 39.912 16.465 61.465-12.361 21.4-39.878 28.938-61.479 16.479z" fill="#474f54"/><path d="m487.39 128.5c-28.643-49.66-126.687-33.523-220.84 9.584-17.8 8.148-35.475 17.155-52.5 26.979-62.871 36.299-116.528 81.196-147.246 123.208l24.229 17.695c28.33-38.745 78.633-80.64 138.018-114.917 12.656-7.304 25.175-13.87 37.5-19.882 96.33-46.983 179.178-54.835 194.854-27.667 26.58 45.994-98.707 143.593-157.354 177.451-12.654 7.308-25.173 13.876-37.5 19.889-96.295 46.978-179.154 54.829-194.854 27.675-2.461-4.292-3.325-9.492-2.607-15.938l-29.824-3.281c-1.406 12.817.747 24.331 6.445 34.204 32.245 55.858 141.412 25.659 220.84-10.005 19.905-8.937 38.022-18.199 52.5-26.558 71.661-41.37 209.103-147.788 168.339-218.437z" fill="#ffda2d"/><path d="m487.39 128.5c-28.643-49.66-126.687-33.523-220.84 9.584v33.083c96.33-46.983 179.178-54.835 194.854-27.667 26.58 45.994-98.707 143.593-157.354 177.451-12.654 7.308-25.173 13.876-37.5 19.889v32.655c19.905-8.937 38.022-18.199 52.5-26.558 71.662-41.37 209.104-147.788 168.34-218.437z" fill="#fdbf00"/><path d="m338.488 66.874-27.451 12.129c19.395 43.916 30.513 108.428 30.513 176.997 0 128.774-39.595 226-75 226s-75-97.226-75-226 39.595-226 75-226c4.937 0 9.873 1.86 15.103 5.698l17.725-24.199c-10.401-7.632-21.446-11.499-32.828-11.499-68.203 0-105 132.382-105 256s36.797 256 105 256 105-132.382 105-256c0-72.583-12.056-141.519-33.062-189.126z" fill="#8cf2f2"/><path d="m281.652 35.698 17.725-24.199c-10.4-7.632-21.445-11.499-32.827-11.499v30c4.936 0 9.873 1.86 15.102 5.698z" fill="#8cf2f2"/><path d="m371.55 256c0-72.583-12.056-141.519-33.062-189.126l-27.451 12.129c19.395 43.916 30.513 108.428 30.513 176.997 0 128.774-39.595 226-75 226v30c68.203 0 105-132.382 105-256z" fill="#57d9d4"/><path d="m311.55 91c-24.814 0-45-21.186-45-46s20.186-45 45-45 45 20.186 45 45-20.186 46-45 46z" fill="#474f54"/><path d="m23.21 344.55c-12.393-21.519-5.01-49.087 16.464-61.494 22.056-12.656 49.306-4.647 61.48 16.494 12.394 21.432 5.144 48.972-16.465 61.45-21.491 12.395-49.048 5.026-61.479-16.45z" fill="#575f64"/><circle cx="266.55" cy="256" fill="#ff637b" r="45"/><path d="m311.55 256c0-24.814-20.186-45-45-45v90c24.814 0 45-20.186 45-45z" fill="#e63950"/></svg>