<svg width="120" height="180" viewBox="0 0 120 180" fill="none" xmlns="http://www.w3.org/2000/svg">
<g opacity="0.2">
<path fill-rule="evenodd" clip-rule="evenodd" d="M111.944 142.29C118.244 145.71 118.244 151.29 112.034 154.71L71.354 177.03C65.054 180.45 54.884 180.45 48.584 177.03L7.63402 154.71C1.33402 151.29 1.33402 145.71 7.54402 142.29L48.224 119.97C54.524 116.55 64.694 116.55 70.994 119.97L111.944 142.29Z" fill="#606060"/>
</g>
<path fill-rule="evenodd" clip-rule="evenodd" d="M114.014 139.77V140.67C114.014 140.76 114.014 140.85 113.924 140.85C113.834 140.85 113.924 140.94 113.834 141.03C113.824 141.098 113.793 141.161 113.744 141.21C113.744 141.3 113.654 141.3 113.654 141.39C113.654 141.48 113.564 141.57 113.564 141.66C113.564 141.75 113.474 141.75 113.474 141.84C113.474 141.93 113.384 142.02 113.384 142.11C113.384 142.2 113.294 142.2 113.294 142.29C113.294 142.38 113.204 142.47 113.114 142.56C113.024 142.65 113.024 142.65 113.024 142.74C113.024 142.83 112.844 142.92 112.844 143.01L112.754 143.1C112.664 143.28 112.484 143.37 112.394 143.55L112.304 143.64C112.214 143.73 112.124 143.91 111.944 144L111.764 144.18C111.674 144.27 111.584 144.27 111.584 144.36C111.584 144.45 111.404 144.45 111.404 144.54C111.404 144.63 111.224 144.63 111.134 144.72C111.044 144.81 110.954 144.81 110.864 144.9C110.774 144.99 110.684 144.99 110.594 145.08C110.504 145.17 110.414 145.17 110.324 145.26C110.234 145.35 110.144 145.35 110.054 145.44C109.955 145.535 109.829 145.597 109.694 145.62L71.2999 167.94C70.9399 168.12 70.6699 168.3 70.3099 168.48C70.2199 168.48 70.1299 168.57 70.0399 168.57C69.6799 168.75 69.4099 168.84 69.0499 169.02C69.0002 169.02 68.9599 169.06 68.9599 169.11C68.6146 169.27 68.2523 169.391 67.8799 169.47C67.6212 169.572 67.3478 169.633 67.0699 169.65C66.8635 169.722 66.6532 169.782 66.4399 169.83C66.1699 169.92 65.8999 169.92 65.6299 170.01C65.3599 170.1 65.1799 170.1 64.9999 170.1H64.7299C64.3699 170.19 64.0099 170.19 63.6499 170.28H63.3799C63.1659 170.265 62.9513 170.296 62.7499 170.37C62.3899 170.37 62.0299 170.46 61.7599 170.46H58.7899C58.5464 170.475 58.3023 170.444 58.0699 170.37C57.7999 170.37 57.5299 170.28 57.3499 170.28C57.1699 170.28 56.8999 170.19 56.6299 170.19C56.3521 170.173 56.0787 170.112 55.8199 170.01C55.6399 170.01 55.3699 169.92 55.1899 169.92C54.8299 169.83 54.5599 169.74 54.2899 169.65C54.0199 169.56 53.8399 169.56 53.6599 169.47C53.4799 169.38 53.4799 169.38 53.2999 169.38C52.9857 169.299 52.6832 169.178 52.3999 169.02C52.3099 169.02 52.2199 168.93 52.1299 168.93C51.8445 168.848 51.5719 168.727 51.3199 168.57C51.2299 168.48 51.0499 168.48 50.9599 168.39L49.8799 167.85L11.1799 145.53C8.20993 143.82 6.67993 141.57 6.67993 139.23V143.37C6.67993 145.62 8.20993 147.87 11.1799 149.67L49.8799 171.99L50.9599 172.53C51.0499 172.62 51.2299 172.62 51.3199 172.71C51.5899 172.8 51.7699 172.89 52.0399 172.98H52.1299C52.2199 172.98 52.3099 173.07 52.3999 173.07C52.7142 173.151 53.0167 173.272 53.2999 173.43C53.3899 173.43 53.4799 173.52 53.6599 173.52C53.7282 173.529 53.7914 173.561 53.8399 173.61C53.9299 173.61 54.1099 173.7 54.1999 173.7C54.4699 173.79 54.8299 173.88 55.0999 173.97C55.1989 173.958 55.2979 173.991 55.3699 174.06C55.4968 174.047 55.6243 174.078 55.7299 174.15C55.9999 174.24 56.2699 174.24 56.5399 174.33C56.6659 174.326 56.7905 174.357 56.8999 174.42H57.2599C57.5299 174.42 57.7999 174.51 57.9799 174.51H61.6699C62.0026 174.529 62.3362 174.499 62.6599 174.42H63.5599C63.9259 174.404 64.2886 174.344 64.6399 174.24H64.9999C65.1516 174.219 65.3018 174.189 65.4499 174.15C65.7199 174.06 65.9899 174.06 66.2599 173.97C66.4663 173.898 66.6767 173.838 66.8899 173.79C67.1487 173.687 67.4221 173.627 67.6999 173.61C67.7899 173.61 67.7899 173.61 67.8799 173.52C68.1942 173.439 68.4967 173.318 68.7799 173.16C68.8296 173.16 68.8699 173.12 68.8699 173.07C69.2158 172.958 69.5479 172.807 69.8599 172.62C69.9499 172.62 70.0399 172.53 70.1299 172.53C70.47 172.369 70.8006 172.189 71.1199 171.99L109.55 149.67C109.64 149.67 109.64 149.58 109.73 149.58C109.82 149.58 109.82 149.49 109.91 149.49C110 149.49 110.09 149.4 110.18 149.31C110.27 149.22 110.36 149.22 110.45 149.13C110.54 149.04 110.63 149.04 110.72 148.95C110.81 148.86 110.9 148.86 110.99 148.77C111.08 148.68 111.17 148.68 111.26 148.59C111.35 148.5 111.44 148.5 111.44 148.41C111.44 148.32 111.62 148.32 111.62 148.23L111.71 148.14L111.8 148.05L112.16 147.69L112.25 147.6C112.396 147.473 112.518 147.321 112.61 147.15L112.7 147.06C112.79 146.97 112.88 146.88 112.88 146.79C112.88 146.7 112.97 146.7 112.97 146.61C112.97 146.52 113.06 146.43 113.15 146.34C113.21 146.28 113.27 146.22 113.33 146.16C113.33 146.07 113.42 145.98 113.42 145.89C113.42 145.8 113.51 145.8 113.51 145.71C113.51 145.62 113.6 145.53 113.6 145.44V145.26C113.609 145.192 113.641 145.129 113.69 145.08C113.69 144.99 113.69 144.99 113.78 144.9C113.87 144.81 113.78 144.72 113.87 144.72V139.5C114.014 139.59 114.014 139.68 114.014 139.77Z" fill="url(#paint0_linear)"/>
<path fill-rule="evenodd" clip-rule="evenodd" d="M109.604 133.2C115.544 136.62 115.634 142.2 109.694 145.62L71.3001 167.94C65.3601 171.36 55.7301 171.36 49.7901 167.94L11.0901 145.62C5.1501 142.2 5.0601 136.62 11.0001 133.2L49.4301 110.88C55.3701 107.46 65.0001 107.46 70.9401 110.88L109.604 133.2Z" fill="url(#paint1_linear)"/>
<path fill-rule="evenodd" clip-rule="evenodd" d="M86.024 138.69C85.304 141.93 82.784 144.99 78.554 147.51C68.204 153.54 51.464 153.54 41.024 147.51C36.704 144.99 34.184 141.84 33.464 138.6C32.384 134.01 34.904 129.24 40.934 125.73C51.284 119.7 68.114 119.7 78.464 125.73C84.584 129.24 87.104 134.1 86.024 138.69Z" fill="url(#paint2_linear)"/>
<path fill-rule="evenodd" clip-rule="evenodd" d="M86.0241 138.69C85.3041 141.93 82.7841 144.99 78.5541 147.51C68.2041 153.54 51.4641 153.54 41.0241 147.51C36.7041 144.99 34.1841 141.84 33.4641 138.6C34.1841 135.36 36.7041 132.3 40.9341 129.78C51.2841 123.75 68.1141 123.75 78.4641 129.78C82.7841 132.3 85.3041 135.45 86.0241 138.69Z" fill="url(#paint3_linear)"/>
<path opacity="0.6" fill-rule="evenodd" clip-rule="evenodd" d="M68.2039 18.3599C68.2202 28.3585 66.7646 38.3051 63.8839 47.8799C61.0544 57.4705 56.8399 66.5967 51.3739 74.9699L48.1339 79.9199C45.4091 78.8521 42.837 77.4299 40.4839 75.6899C37.8198 73.6579 35.4827 71.2297 33.5539 68.4899C29.9752 63.3058 28.0717 57.1492 28.0999 50.8499V41.4899C34.1042 42.6582 40.1854 39.8709 43.2199 34.5599L48.0799 26.0999C50.0778 27.2569 52.3413 27.877 54.6499 27.8999C58.9695 27.9264 63.0189 25.8005 65.4499 22.2299L68.2039 18.3599Z" fill="url(#paint4_linear)"/>
<path fill-rule="evenodd" clip-rule="evenodd" d="M74.9001 22.23C74.9164 32.2286 73.4608 42.1753 70.5801 51.75C67.7506 61.3406 63.5362 70.4668 58.0701 78.84L54.8301 83.79C52.1053 82.7223 49.5332 81.3 47.1801 79.56C44.516 77.528 42.1789 75.0998 40.2501 72.36C36.6586 67.1801 34.7424 61.0232 34.7601 54.72V45.36C40.7644 46.5283 46.8456 43.7411 49.8801 38.43L54.7401 29.97C56.7381 31.127 59.0015 31.7471 61.3101 31.77C65.6298 31.7966 69.6791 29.6707 72.1101 26.1L74.9001 22.23Z" fill="url(#paint5_linear)"/>
<g opacity="0.75">
<path fill-rule="evenodd" clip-rule="evenodd" d="M72.29 26.01L74.9 22.23C74.8557 32.1524 73.463 42.0227 70.76 51.57C67.8921 61.1462 63.6801 70.2671 58.25 78.66L55.01 83.61C52.2757 82.5624 49.701 81.1387 47.36 79.38C39.5347 73.5217 34.9314 64.3152 34.94 54.54V45.18C35.8288 45.3589 36.7332 45.4493 37.64 45.45C42.7529 45.469 47.4874 42.7586 50.06 38.34L54.92 29.88C56.9007 31.0775 59.1754 31.7007 61.49 31.68C65.8045 31.686 69.8448 29.5648 72.29 26.01ZM74.0528 24.623C74.0532 24.6053 74.0536 24.5877 74.054 24.57H74.09L74.0528 24.623ZM74.0528 24.623L72.83 26.37C70.2496 30.1443 65.972 32.401 61.4 32.4C59.2098 32.3848 57.0531 31.861 55.1 30.87L50.474 38.79C47.7918 43.4096 42.8557 46.2547 37.514 46.26C36.8527 46.2749 36.1911 46.2449 35.534 46.17V54.72C35.5075 60.8857 37.3597 66.9131 40.844 72C44.2561 76.8966 49.005 80.7082 54.524 82.98L57.404 78.48C62.8206 70.1562 67.004 61.0922 69.824 51.57C72.436 42.8179 73.8583 33.7543 74.0528 24.623Z" fill="url(#paint6_linear)"/>
</g>
<path fill-rule="evenodd" clip-rule="evenodd" d="M74.9001 22.23L72.2901 26.01C69.845 29.5649 65.8047 31.686 61.4901 31.68C59.1756 31.7007 56.9009 31.0775 54.9201 29.88L50.0601 38.34C46.9986 43.6214 40.9396 46.3985 34.9401 45.27V54.63C34.9316 64.4052 39.5348 73.6117 47.3601 79.47C35.8386 74.5824 28.3596 63.2754 28.3701 50.76V41.4C34.3744 42.5683 40.4556 39.7811 43.4901 34.47L48.3501 26.01C54.2843 29.4389 61.8585 27.7121 65.7201 22.05L68.3301 18.27L74.9001 22.23Z" fill="url(#paint7_linear)"/>
<path opacity="0.6" fill-rule="evenodd" clip-rule="evenodd" d="M55.5139 62.2801C55.5139 62.2801 55.9639 58.6801 62.1739 54.6301C65.0289 56.5491 67.3264 59.1881 68.8339 62.2801C68.8339 62.2801 72.1999 40.8601 82.1539 35.3701L92.1439 41.1301C83.7739 44.3701 75.3139 58.5001 69.8239 77.0401C67.1239 70.1101 62.1739 64.5301 55.5139 62.2801Z" fill="#6BE726"/>
<g opacity="0.95">
<path fill-rule="evenodd" clip-rule="evenodd" d="M92.144 41.1298L87.104 38.2498C77.114 43.7398 73.784 65.1598 73.784 65.1598C72.7412 62.8958 71.2395 60.8731 69.374 59.2198C70.724 53.0998 74.414 39.5098 82.154 35.2798L92.144 41.1298Z" fill="url(#paint8_linear)"/>
<path fill-rule="evenodd" clip-rule="evenodd" d="M67.1239 57.4196L62.1739 54.5396C58.3039 57.2396 56.1439 59.7596 55.5139 62.1896L60.4999 65.0696C61.8092 61.8621 64.1367 59.1741 67.1239 57.4196Z" fill="url(#paint9_linear)"/>
<path fill-rule="evenodd" clip-rule="evenodd" d="M61.5439 65.52C64.6939 67.95 67.5739 71.46 69.8239 77.04L74.7739 79.92C71.8939 72.45 67.2139 68.13 61.5439 65.52Z" fill="#FF9418"/>
</g>
<path fill-rule="evenodd" clip-rule="evenodd" d="M60.5 65.16C60.5 65.16 60.95 61.56 67.16 57.51C70.015 59.429 72.3125 62.068 73.82 65.16C73.82 65.16 77.15 43.74 87.14 38.25L97.13 44.01C88.76 47.25 80.3 61.38 74.81 79.92C72.2 72.99 67.124 67.41 60.5 65.16Z" fill="url(#paint10_linear)"/>
<g opacity="0.91">
<path fill-rule="evenodd" clip-rule="evenodd" d="M73.7841 65.16C73.7841 65.16 77.1141 43.74 87.1041 38.25L97.1841 44.01C88.8141 47.16 80.3541 61.38 74.8641 79.92C72.1641 72.99 67.1241 67.41 60.4641 65.16C60.4641 65.16 60.9141 61.65 67.1241 57.51C69.9997 59.4055 72.3026 62.0508 73.7841 65.16ZM96.2841 43.92L87.1041 38.61C78.2773 43.6896 74.7667 61.9442 74.2199 64.7877C74.1757 65.0174 74.1508 65.1465 74.1441 65.16L73.9641 66.33L73.4241 65.25C72.0187 62.2729 69.8438 59.7251 67.1241 57.87C62.3541 61.11 61.1841 63.99 60.9141 64.89C66.8541 67.05 71.8941 72.09 74.7741 78.84C80.3001 60.75 88.4001 47.52 96.2841 43.92Z" fill="url(#paint11_linear)"/>
</g>
<g opacity="0.75">
<path opacity="0.9" fill-rule="evenodd" clip-rule="evenodd" d="M34.9041 54.27V54.63C34.9011 56.5926 35.0819 58.5512 35.4441 60.48L56.4141 81.45L58.1241 78.84L58.6641 78.03L34.9041 54.27Z" fill="url(#paint12_linear)"/>
<path opacity="0.9" fill-rule="evenodd" clip-rule="evenodd" d="M43.4002 44.3701C40.7462 45.5518 37.7953 45.8971 34.9402 45.3601V47.2501L61.3102 73.6201C62.6602 71.1901 64.0102 68.6701 65.1802 66.1501L43.4002 44.3701Z" fill="url(#paint13_linear)"/>
<path opacity="0.9" fill-rule="evenodd" clip-rule="evenodd" d="M69.7342 54.27C70.0042 53.46 70.2742 52.56 70.5442 51.66C70.9942 50.04 71.4442 48.42 71.8042 46.8L54.7942 29.79L51.2842 35.82L69.7342 54.27Z" fill="url(#paint14_linear)"/>
<path opacity="0.9" fill-rule="evenodd" clip-rule="evenodd" d="M67.9341 59.3099C68.1141 58.7699 68.2941 58.2299 68.4741 57.7799L49.5741 38.8799C49.3263 39.3348 49.024 39.7579 48.6741 40.1399L67.9341 59.3099Z" fill="url(#paint15_linear)"/>
<path opacity="0.9" fill-rule="evenodd" clip-rule="evenodd" d="M64.1541 31.4099L73.2441 40.4999C73.5141 38.8799 73.7841 37.2599 73.9641 35.6399L68.2041 29.8799C66.9424 30.5986 65.5758 31.1149 64.1541 31.4099Z" fill="url(#paint16_linear)"/>
</g>
<path opacity="0.75" d="M28.1541 41.4902L35.3541 45.9002" stroke="url(#paint17_linear)" stroke-width="0.8"/>
<path opacity="0.75" d="M47.9541 26.46L54.8841 30.51" stroke="url(#paint18_linear)" stroke-width="0.8"/>
<path opacity="0.75" d="M68.0239 18.8101L74.5939 22.5901" stroke="url(#paint19_linear)" stroke-width="0.8"/>
<path fill-rule="evenodd" clip-rule="evenodd" d="M69.374 1.52979L105.914 37.0798L93.674 86.5798L57.134 51.0298L69.374 1.52979V1.52979Z" stroke="#B5BDFC" stroke-width="0.28"/>
<path fill-rule="evenodd" clip-rule="evenodd" d="M57.1341 51.0298L93.674 86.5798L44.4441 100.62L7.90405 65.0698L57.1341 51.0298V51.0298Z" stroke="#B5BDFC" stroke-width="0.28"/>
<path fill-rule="evenodd" clip-rule="evenodd" d="M69.3741 1.52979L57.1341 51.0298L7.90405 65.0698L20.0541 15.5698L69.3741 1.52979V1.52979Z" stroke="#B5BDFC" stroke-width="0.28"/>
<path fill-rule="evenodd" clip-rule="evenodd" d="M7.45407 66.6899C8.29907 66.6899 8.98407 66.0049 8.98407 65.1599C8.98407 64.3149 8.29907 63.6299 7.45407 63.6299C6.60908 63.6299 5.92407 64.3149 5.92407 65.1599C5.92407 66.0049 6.60908 66.6899 7.45407 66.6899Z" fill="#B6BDFC"/>
<path fill-rule="evenodd" clip-rule="evenodd" d="M20.0539 17.1C20.8989 17.1 21.5839 16.415 21.5839 15.57C21.5839 14.725 20.8989 14.04 20.0539 14.04C19.2089 14.04 18.5239 14.725 18.5239 15.57C18.5239 16.415 19.2089 17.1 20.0539 17.1Z" fill="#B6BDFC"/>
<path fill-rule="evenodd" clip-rule="evenodd" d="M56.864 52.29C57.709 52.29 58.394 51.605 58.394 50.76C58.394 49.915 57.709 49.23 56.864 49.23C56.019 49.23 55.334 49.915 55.334 50.76C55.334 51.605 56.019 52.29 56.864 52.29Z" fill="#B6BDFC"/>
<path fill-rule="evenodd" clip-rule="evenodd" d="M93.7641 88.02C94.6091 88.02 95.2941 87.335 95.2941 86.49C95.2941 85.645 94.6091 84.96 93.7641 84.96C92.9191 84.96 92.2341 85.645 92.2341 86.49C92.2341 87.335 92.9191 88.02 93.7641 88.02Z" fill="#B6BDFC"/>
<path fill-rule="evenodd" clip-rule="evenodd" d="M69.374 3.06C70.219 3.06 70.904 2.375 70.904 1.53C70.904 0.685004 70.219 0 69.374 0C68.529 0 67.844 0.685004 67.844 1.53C67.844 2.375 68.529 3.06 69.374 3.06Z" fill="#B6BDFC"/>
<path fill-rule="evenodd" clip-rule="evenodd" d="M44.2641 102.24C45.1091 102.24 45.7941 101.555 45.7941 100.71C45.7941 99.8652 45.1091 99.1802 44.2641 99.1802C43.4191 99.1802 42.7341 99.8652 42.7341 100.71C42.7341 101.555 43.4191 102.24 44.2641 102.24Z" fill="#B6BDFC"/>
<path fill-rule="evenodd" clip-rule="evenodd" d="M106.094 38.6098C106.939 38.6098 107.624 37.9248 107.624 37.0798C107.624 36.2348 106.939 35.5498 106.094 35.5498C105.249 35.5498 104.564 36.2348 104.564 37.0798C104.564 37.9248 105.249 38.6098 106.094 38.6098Z" fill="#B6BDFC"/>
<path fill-rule="evenodd" clip-rule="evenodd" d="M49.4841 124.56C49.4841 124.11 49.244 123.694 48.8541 123.469C48.4643 123.244 47.984 123.244 47.5941 123.469C47.2043 123.694 46.9641 124.11 46.9641 124.56C46.9663 125.006 47.2064 125.418 47.5941 125.64L48.2241 165.24L48.8541 125.64C49.2419 125.418 49.482 125.006 49.4841 124.56Z" fill="url(#paint20_linear)"/>
<path fill-rule="evenodd" clip-rule="evenodd" d="M62.354 104.04C62.354 102.996 61.5078 102.15 60.464 102.15C59.4202 102.15 58.574 102.996 58.574 104.04C58.5693 104.724 58.9529 105.352 59.564 105.66L60.5 162.9H60.41L61.31 105.66C61.9421 105.367 62.3488 104.736 62.354 104.04Z" fill="url(#paint21_linear)"/>
<path fill-rule="evenodd" clip-rule="evenodd" d="M73.6941 119.7C73.6941 119.004 73.13 118.44 72.4341 118.44C71.7382 118.44 71.1741 119.004 71.1741 119.7C71.1762 120.147 71.4163 120.558 71.8041 120.78L72.4341 160.38L73.0641 120.78C73.4518 120.558 73.6919 120.147 73.6941 119.7Z" fill="url(#paint22_linear)"/>
<path fill-rule="evenodd" clip-rule="evenodd" d="M101.504 60.8398H17.9841L33.1941 136.98C33.2096 137.494 33.2698 138.006 33.3741 138.51C34.0941 141.75 36.6141 144.9 40.9341 147.42C51.3741 153.45 68.1141 153.45 78.4641 147.42C82.6941 144.99 85.2141 141.84 85.9341 138.6C86.0386 138.066 86.0988 137.524 86.1141 136.98L101.504 60.8398Z" fill="url(#paint23_linear)"/>
<defs>
<linearGradient id="paint0_linear" x1="6.47293" y1="174.553" x2="114.05" y2="174.553" gradientUnits="userSpaceOnUse">
<stop stop-color="#7348BF"/>
<stop offset="0.25" stop-color="#784AC1"/>
<stop offset="0.54" stop-color="#854FC8"/>
<stop offset="0.85" stop-color="#9C58D4"/>
<stop offset="1" stop-color="#AA5DDB"/>
</linearGradient>
<linearGradient id="paint1_linear" x1="172.076" y1="190.512" x2="172.076" y2="61.2359" gradientUnits="userSpaceOnUse">
<stop stop-color="#DBA5F5"/>
<stop offset="0.19" stop-color="#DDAAF6"/>
<stop offset="0.41" stop-color="#E2B7F7"/>
<stop offset="0.65" stop-color="#EBCEFA"/>
<stop offset="0.89" stop-color="#F8EEFD"/>
<stop offset="1" stop-color="white"/>
</linearGradient>
<linearGradient id="paint2_linear" x1="88.6833" y1="-402.39" x2="88.6833" y2="-436.023" gradientUnits="userSpaceOnUse">
<stop stop-color="#7348BF"/>
<stop offset="0.25" stop-color="#784AC1"/>
<stop offset="0.54" stop-color="#854FC8"/>
<stop offset="0.85" stop-color="#9C58D4"/>
<stop offset="1" stop-color="#AA5DDB"/>
</linearGradient>
<linearGradient id="paint3_linear" x1="11.4949" y1="-457.29" x2="11.4949" y2="-408.132" gradientUnits="userSpaceOnUse">
<stop stop-color="#7348BF"/>
<stop offset="0.25" stop-color="#784AC1"/>
<stop offset="0.54" stop-color="#854FC8"/>
<stop offset="0.85" stop-color="#9C58D4"/>
<stop offset="1" stop-color="#AA5DDB"/>
</linearGradient>
<linearGradient id="paint4_linear" x1="48.3768" y1="92.462" x2="92.8739" y2="66.2126" gradientUnits="userSpaceOnUse">
<stop stop-color="#FFD13E"/>
<stop offset="0.05" stop-color="#FECD3B"/>
<stop offset="0.31" stop-color="#F8BD32"/>
<stop offset="0.6" stop-color="#F5B42C"/>
<stop offset="1" stop-color="#F4B12A"/>
</linearGradient>
<linearGradient id="paint5_linear" x1="34.8591" y1="83.6587" x2="74.8281" y2="83.6587" gradientUnits="userSpaceOnUse">
<stop stop-color="#DBA5F5"/>
<stop offset="0.19" stop-color="#DBA0F5"/>
<stop offset="0.41" stop-color="#DB93F5"/>
<stop offset="0.64" stop-color="#DB7CF5"/>
<stop offset="0.87" stop-color="#DB5CF5"/>
<stop offset="1" stop-color="#DB48F5"/>
</linearGradient>
<linearGradient id="paint6_linear" x1="34.859" y1="83.61" x2="74.819" y2="83.61" gradientUnits="userSpaceOnUse">
<stop stop-color="white" stop-opacity="0.01"/>
<stop offset="1" stop-color="white" stop-opacity="0.85"/>
</linearGradient>
<linearGradient id="paint7_linear" x1="27.4257" y1="-313.733" x2="71.3162" y2="-296.791" gradientUnits="userSpaceOnUse">
<stop stop-color="#7348BF"/>
<stop offset="0.25" stop-color="#784AC1"/>
<stop offset="0.54" stop-color="#854FC8"/>
<stop offset="0.85" stop-color="#9C58D4"/>
<stop offset="1" stop-color="#AA5DDB"/>
</linearGradient>
<linearGradient id="paint8_linear" x1="72.1762" y1="34.4207" x2="66.5757" y2="60.8548" gradientUnits="userSpaceOnUse">
<stop stop-color="#FFCF5C"/>
<stop offset="0.22" stop-color="#FFCB57"/>
<stop offset="0.47" stop-color="#FFBF4A"/>
<stop offset="0.74" stop-color="#FFAB33"/>
<stop offset="1" stop-color="#FF9115"/>
</linearGradient>
<linearGradient id="paint9_linear" x1="54.3754" y1="-336.292" x2="65.803" y2="-333.338" gradientUnits="userSpaceOnUse">
<stop stop-color="#FFCF5C"/>
<stop offset="0.22" stop-color="#FFCB57"/>
<stop offset="0.47" stop-color="#FFBF4A"/>
<stop offset="0.74" stop-color="#FFAB33"/>
<stop offset="1" stop-color="#FF9115"/>
</linearGradient>
<linearGradient id="paint10_linear" x1="101.078" y1="-327.314" x2="83.9925" y2="-363.608" gradientUnits="userSpaceOnUse">
<stop stop-color="#FFCF5C"/>
<stop offset="0.22" stop-color="#FFCB57"/>
<stop offset="0.47" stop-color="#FFBF4A"/>
<stop offset="0.74" stop-color="#FFAB33"/>
<stop offset="1" stop-color="#FF9115"/>
</linearGradient>
<linearGradient id="paint11_linear" x1="91.296" y1="51.745" x2="71.8348" y2="43.0206" gradientUnits="userSpaceOnUse">
<stop stop-color="white" stop-opacity="0.01"/>
<stop offset="0.93" stop-color="white" stop-opacity="0.79"/>
<stop offset="1" stop-color="white" stop-opacity="0.85"/>
</linearGradient>
<linearGradient id="paint12_linear" x1="39.1657" y1="-360.273" x2="19.7326" y2="-343.508" gradientUnits="userSpaceOnUse">
<stop stop-color="white" stop-opacity="0.01"/>
<stop offset="1" stop-color="white" stop-opacity="0.85"/>
</linearGradient>
<linearGradient id="paint13_linear" x1="45.5111" y1="-351.758" x2="29.0037" y2="-331.829" gradientUnits="userSpaceOnUse">
<stop stop-color="white" stop-opacity="0.01"/>
<stop offset="1" stop-color="white" stop-opacity="0.85"/>
</linearGradient>
<linearGradient id="paint14_linear" x1="61.5012" y1="-341.213" x2="41.5311" y2="-325.363" gradientUnits="userSpaceOnUse">
<stop stop-color="white" stop-opacity="0.01"/>
<stop offset="1" stop-color="white" stop-opacity="0.85"/>
</linearGradient>
<linearGradient id="paint15_linear" x1="54.769" y1="-344.663" x2="37.0184" y2="-325.83" gradientUnits="userSpaceOnUse">
<stop stop-color="white" stop-opacity="0.01"/>
<stop offset="1" stop-color="white" stop-opacity="0.85"/>
</linearGradient>
<linearGradient id="paint16_linear" x1="68.7544" y1="-333.124" x2="50.1611" y2="-315.213" gradientUnits="userSpaceOnUse">
<stop stop-color="white" stop-opacity="0.01"/>
<stop offset="1" stop-color="white" stop-opacity="0.85"/>
</linearGradient>
<linearGradient id="paint17_linear" x1="28.0101" y1="-321.935" x2="35.5161" y2="-321.935" gradientUnits="userSpaceOnUse">
<stop stop-color="white" stop-opacity="0.01"/>
<stop offset="1" stop-color="white" stop-opacity="0.85"/>
</linearGradient>
<linearGradient id="paint18_linear" x1="47.7741" y1="-306.907" x2="55.0191" y2="-306.907" gradientUnits="userSpaceOnUse">
<stop stop-color="white" stop-opacity="0.01"/>
<stop offset="1" stop-color="white" stop-opacity="0.85"/>
</linearGradient>
<linearGradient id="paint19_linear" x1="67.8799" y1="-299.261" x2="74.7559" y2="-299.261" gradientUnits="userSpaceOnUse">
<stop stop-color="white" stop-opacity="0.01"/>
<stop offset="1" stop-color="white" stop-opacity="0.85"/>
</linearGradient>
<linearGradient id="paint20_linear" x1="49.5027" y1="151.535" x2="43.0947" y2="150.027" gradientUnits="userSpaceOnUse">
<stop stop-color="white" stop-opacity="0.01"/>
<stop offset="1" stop-color="white" stop-opacity="0.8"/>
</linearGradient>
<linearGradient id="paint21_linear" x1="59.9345" y1="-433.453" x2="50.1747" y2="-431.008" gradientUnits="userSpaceOnUse">
<stop stop-color="white" stop-opacity="0.01"/>
<stop offset="1" stop-color="white" stop-opacity="0.8"/>
</linearGradient>
<linearGradient id="paint22_linear" x1="72.0915" y1="-434.131" x2="65.6834" y2="-432.623" gradientUnits="userSpaceOnUse">
<stop stop-color="white" stop-opacity="0.01"/>
<stop offset="1" stop-color="white" stop-opacity="0.8"/>
</linearGradient>
<linearGradient id="paint23_linear" x1="14.0629" y1="62.7478" x2="14.0629" y2="162.405" gradientUnits="userSpaceOnUse">
<stop stop-color="#DBA5F5" stop-opacity="0.01"/>
<stop offset="0.21" stop-color="#DB9CF5" stop-opacity="0.21"/>
<stop offset="0.55" stop-color="#DB84F5" stop-opacity="0.55"/>
<stop offset="0.99" stop-color="#DB5CF5" stop-opacity="0.99"/>
<stop offset="1" stop-color="#DB5BF5"/>
</linearGradient>
</defs>
</svg>
