<svg width="80" height="80" viewBox="0 0 80 80" fill="none" xmlns="http://www.w3.org/2000/svg">
<rect width="80" height="80" rx="24" fill="#6979F8"/>
<path d="M14.9629 33.3525C14.9531 32.9424 15.0898 32.6104 15.373 32.3564C15.666 32.0928 16.0225 31.9609 16.4424 31.9609C16.9209 31.9609 17.3408 32.2344 17.7021 32.7812C18.2002 33.5234 18.6445 34.0264 19.0352 34.29C19.8652 34.8369 21.0713 35.1104 22.6533 35.1104C24.167 35.1104 25.5732 34.7832 26.8721 34.1289C28.5322 33.2891 29.3623 32.1221 29.3623 30.6279C29.3623 29.3975 28.6641 28.4258 27.2676 27.7129C26.0859 27.0977 24.626 26.7656 22.8877 26.7168C21.3447 26.6582 20.0312 26.3213 18.9473 25.7061C17.5605 24.915 16.8672 23.7822 16.8672 22.3076C16.8672 20.5693 17.8535 18.9824 19.8262 17.5469C21.7109 16.1895 23.6592 15.5107 25.6709 15.5107C26.6182 15.5107 27.6875 15.6719 28.8789 15.9941C30.4609 16.4141 31.252 16.9512 31.252 17.6055C31.252 18.4648 30.8125 18.8945 29.9336 18.8945C29.543 18.8945 28.8594 18.792 27.8828 18.5869C26.9062 18.3721 26.1494 18.2695 25.6123 18.2793C24.0889 18.2988 22.7949 18.6748 21.7305 19.4072C20.6367 20.1592 20.0898 21.0723 20.0898 22.1465C20.0898 22.957 20.8125 23.5283 22.2578 23.8604C22.7949 23.9873 23.835 24.1045 25.3779 24.2119C27.6143 24.3779 29.3623 25.0811 30.6221 26.3213C31.7744 27.4541 32.3506 28.8359 32.3506 30.4668C32.3506 32.791 31.2764 34.6465 29.1279 36.0332C27.2627 37.2344 25.0996 37.835 22.6387 37.835C20.8516 37.835 19.2158 37.4932 17.7314 36.8096C15.915 35.9697 14.9922 34.8174 14.9629 33.3525ZM48.0977 37.9082C47.4043 37.9082 46.9502 37.5371 46.7354 36.7949C46.5107 35.9941 46.3057 34.8564 46.1201 33.3818C45.9443 31.9658 45.8564 30.8037 45.8564 29.8955C45.8564 29.6416 45.8662 29.2559 45.8857 28.7383C45.915 28.2207 45.9297 27.835 45.9297 27.5811C45.9297 25.7451 45.4707 24.8271 44.5527 24.8271C43.3125 24.8271 42.2041 25.3887 41.2275 26.5117C40.7295 27.0879 40.0459 28.1865 39.1768 29.8076C39.1768 33.5283 39.0205 35.7305 38.708 36.4141C38.4346 37.0195 38.0098 37.3223 37.4336 37.3223C37.0332 37.3223 36.6816 37.1855 36.3789 36.9121C36.0762 36.6387 35.9248 36.3066 35.9248 35.916C35.9248 35.7793 35.9688 35.5645 36.0566 35.2715C36.1348 35.0273 36.1885 34.3145 36.2178 33.1328L36.2617 30.9648L36.3057 20.1982C36.374 18.9873 36.4082 18.1719 36.4082 17.752C36.4082 17.2539 36.3594 16.7852 36.2617 16.3457C36.1738 15.8965 36.1299 15.4326 36.1299 14.9541C36.1299 14.5439 36.2715 14.207 36.5547 13.9434C36.8379 13.6699 37.1846 13.5332 37.5947 13.5332C38.3955 13.5332 38.8643 13.9629 39.001 14.8223C39.1572 15.7695 39.2354 16.624 39.2354 17.3857C39.2354 18.4111 39.2012 19.4805 39.1328 20.5938C39.0742 21.6582 39.0498 22.7275 39.0596 23.8018L39.0742 25.0908C39.875 24.0166 40.7295 23.2158 41.6377 22.6885C42.5557 22.1514 43.5273 21.8828 44.5527 21.8828C46.1738 21.8828 47.2871 22.4102 47.8926 23.4648C48.3223 24.207 48.5664 25.457 48.625 27.2148L48.7422 30.0127L49.0352 33.0596C49.1719 34.2021 49.3379 35.208 49.5332 36.0771C49.5723 36.2432 49.5918 36.3848 49.5918 36.502C49.5918 36.9023 49.4453 37.2344 49.1523 37.498C48.8594 37.7715 48.5078 37.9082 48.0977 37.9082ZM64.6211 37.9668C64.4355 37.9668 64.0986 37.752 63.6104 37.3223C63.1709 36.9219 62.8438 36.5654 62.6289 36.2529C61.6914 36.7607 60.8662 37.1416 60.1533 37.3955C59.4404 37.6592 58.8447 37.791 58.3662 37.791C56.0811 37.791 54.416 37.1465 53.3711 35.8574C52.3848 34.6465 51.8916 32.791 51.8916 30.291C51.8916 27.9277 52.7021 25.9062 54.3232 24.2266C55.9541 22.5469 57.8975 21.707 60.1533 21.707C61.0029 21.707 61.9551 21.9268 63.0098 22.3662C64.3379 22.9131 65.002 23.5723 65.002 24.3438C65.002 24.6074 64.9043 24.8418 64.709 25.0469C64.6113 25.418 64.5332 26.0283 64.4746 26.8779C64.4258 27.7275 64.3965 28.8164 64.3867 30.1445C64.377 31.3555 64.46 32.3125 64.6357 33.0156C64.7334 33.4453 65.041 34.3047 65.5586 35.5938C65.627 35.7695 65.7393 36.0283 65.8955 36.3701L65.9834 36.6191C65.9834 37.0098 65.8467 37.332 65.5732 37.5859C65.2998 37.8398 64.9824 37.9668 64.6211 37.9668ZM61.5742 27.7861C61.5742 27.3662 61.5986 26.9121 61.6475 26.4238C61.7061 25.9258 61.7891 25.3984 61.8965 24.8418C61.5352 24.6562 61.2227 24.5195 60.959 24.4316C60.7051 24.3438 60.5 24.2998 60.3438 24.2998C58.8301 24.2998 57.5215 24.9199 56.418 26.1602C55.3242 27.3906 54.7773 28.8115 54.7773 30.4229C54.7773 32.0244 55.0605 33.2256 55.627 34.0264C56.1934 34.8271 57.043 35.2275 58.1758 35.2275C59.1133 35.2275 59.9092 35.0566 60.5635 34.7148C60.915 34.5293 61.4082 34.1582 62.043 33.6016C61.7305 31.0137 61.5742 29.0752 61.5742 27.7861ZM28.5273 54.0654C28.4102 55.501 28.3516 56.9365 28.3516 58.3721C28.3516 61.624 28.5029 64.0801 28.8057 65.7402C28.8252 65.877 28.835 65.9893 28.835 66.0771C28.835 66.4678 28.6982 66.79 28.4248 67.0439C28.1514 67.2979 27.834 67.4248 27.4727 67.4248C26.8672 67.4248 26.4229 66.9854 26.1396 66.1064C25.4365 66.624 24.7041 67.0146 23.9424 67.2783C23.1904 67.542 22.4043 67.6738 21.584 67.6738C19.5625 67.6738 17.8877 67 16.5596 65.6523C15.1924 64.2754 14.5088 62.5078 14.5088 60.3496C14.5088 57.7422 15.1973 55.6523 16.5742 54.0801C17.9609 52.5078 19.7578 51.7217 21.9648 51.7217C23.0977 51.7217 23.9717 51.8975 24.5869 52.249L25.9639 53.2598C26.1006 49.1484 26.2617 46.3799 26.4473 44.9541C26.5742 44.085 27.0186 43.6504 27.7803 43.6504C28.6689 43.6504 29.1133 44.124 29.1133 45.0713C29.1133 46.4287 28.918 49.4268 28.5273 54.0654ZM22.0234 54.4463C20.3828 54.4463 19.1523 54.9346 18.332 55.9111C17.5117 56.8779 17.1016 58.3379 17.1016 60.291C17.1016 61.5508 17.5459 62.6348 18.4346 63.543C19.333 64.4512 20.3828 64.9053 21.584 64.9053C22.4043 64.9053 23.0977 64.7539 23.6641 64.4512C23.9961 64.2754 24.5381 63.8701 25.29 63.2354C25.4365 63.1084 25.5781 62.957 25.7148 62.7812L25.6709 60.2471L25.6855 58.5479L25.7148 56.8193C25.3438 56.0283 24.8506 55.4375 24.2354 55.0469C23.6201 54.6465 22.8828 54.4463 22.0234 54.4463ZM35.4707 48.4551C35.002 48.4551 34.5967 48.2891 34.2549 47.957C33.9131 47.625 33.7422 47.2246 33.7422 46.7559C33.7422 46.2871 33.9131 45.8867 34.2549 45.5547C34.5967 45.2227 35.002 45.0566 35.4707 45.0566C35.9395 45.0566 36.3398 45.2227 36.6719 45.5547C37.0137 45.8867 37.1846 46.2871 37.1846 46.7559C37.1846 47.2246 37.0137 47.625 36.6719 47.957C36.3398 48.2891 35.9395 48.4551 35.4707 48.4551ZM36.1299 60.3496C36.1299 60.9355 36.1445 61.8145 36.1738 62.9863C36.2129 64.1484 36.2324 65.0225 36.2324 65.6084C36.2324 66.0381 36.1006 66.3896 35.8369 66.6631C35.5732 66.9365 35.2266 67.0732 34.7969 67.0732C34.377 67.0732 34.0303 66.9365 33.7568 66.6631C33.4932 66.3896 33.3613 66.0381 33.3613 65.6084C33.3613 65.0225 33.3418 64.1484 33.3027 62.9863C33.2734 61.8145 33.2588 60.9355 33.2588 60.3496C33.2588 59.4316 33.3076 58.2891 33.4053 56.9219C33.5029 55.5449 33.5518 54.3975 33.5518 53.4795C33.5518 53.04 33.6836 52.6836 33.9473 52.4102C34.2207 52.1367 34.5674 52 34.9873 52C35.4072 52 35.749 52.1367 36.0127 52.4102C36.2861 52.6836 36.4229 53.04 36.4229 53.4795C36.4229 54.3975 36.374 55.5449 36.2764 56.9219C36.1787 58.2891 36.1299 59.4316 36.1299 60.3496ZM54.5723 54.0654C54.4551 55.501 54.3965 56.9365 54.3965 58.3721C54.3965 61.624 54.5479 64.0801 54.8506 65.7402C54.8701 65.877 54.8799 65.9893 54.8799 66.0771C54.8799 66.4678 54.7432 66.79 54.4697 67.0439C54.1963 67.2979 53.8789 67.4248 53.5176 67.4248C52.9121 67.4248 52.4678 66.9854 52.1846 66.1064C51.4814 66.624 50.749 67.0146 49.9873 67.2783C49.2354 67.542 48.4492 67.6738 47.6289 67.6738C45.6074 67.6738 43.9326 67 42.6045 65.6523C41.2373 64.2754 40.5537 62.5078 40.5537 60.3496C40.5537 57.7422 41.2422 55.6523 42.6191 54.0801C44.0059 52.5078 45.8027 51.7217 48.0098 51.7217C49.1426 51.7217 50.0166 51.8975 50.6318 52.249L52.0088 53.2598C52.1455 49.1484 52.3066 46.3799 52.4922 44.9541C52.6191 44.085 53.0635 43.6504 53.8252 43.6504C54.7139 43.6504 55.1582 44.124 55.1582 45.0713C55.1582 46.4287 54.9629 49.4268 54.5723 54.0654ZM48.0684 54.4463C46.4277 54.4463 45.1973 54.9346 44.377 55.9111C43.5566 56.8779 43.1465 58.3379 43.1465 60.291C43.1465 61.5508 43.5908 62.6348 44.4795 63.543C45.3779 64.4512 46.4277 64.9053 47.6289 64.9053C48.4492 64.9053 49.1426 64.7539 49.709 64.4512C50.041 64.2754 50.583 63.8701 51.335 63.2354C51.4814 63.1084 51.623 62.957 51.7598 62.7812L51.7158 60.2471L51.7305 58.5479L51.7598 56.8193C51.3887 56.0283 50.8955 55.4375 50.2803 55.0469C49.665 54.6465 48.9277 54.4463 48.0684 54.4463Z" fill="#FFF5F5"/>
</svg>